<?xml version="1.0" standalone="no"?><!DOCTYPE svg PUBLIC "-//W3C//DTD SVG 1.1//EN" "http://www.w3.org/Graphics/SVG/1.1/DTD/svg11.dtd"><svg t="1534991331494" class="icon" style="" viewBox="0 0 1024 1024" version="1.1" xmlns="http://www.w3.org/2000/svg" p-id="1608" xmlns:xlink="http://www.w3.org/1999/xlink" width="200" height="200"><defs><style type="text/css"></style></defs><path d="M528.449742 69.597581c23.582127 42.863935 38.197066 100.467724 38.197066 164.333595 0 131.787352-61.655303 238.762891-137.803702 238.76289-59.321868 0-109.432864-65.34129-128.961429-156.473227-68.902363 97.396068-126.995568 212.724463-126.995568 326.82522 0 169.737661 149.840498 307.296655 334.685587 307.296655s334.684563-137.558993 334.684563-307.296655c0-308.156718-301.523989-563.131809-313.806517-573.448478z m-18.177037 807.297743c-112.748204 0-146.401267-87.325132-140.628601-122.575456 11.544307-70.131025 80.815269-81.675332 133.259699-81.675332 124.539268 0 174.650263-129.697602 177.720895-163.227799 0 0 44.829795 367.478586-170.351993 367.478587z" fill="#939393" p-id="1609"></path></svg>